<svg id="icons" enable-background="new 0 0 64 64" height="512" viewBox="0 0 64 64" width="512" xmlns="http://www.w3.org/2000/svg"><g><g><path d="m22.002 57c-12.131 0-22-9.869-22-22s9.869-22 22-22 22 9.869 22 22-9.869 22-22 22zm0-42c-11.028 0-20 8.972-20 20s8.972 20 20 20 20-8.972 20-20-8.972-20-20-20z"/></g><g><path d="m22.002 48c-7.168 0-13-5.832-13-13s5.832-13 13-13 13 5.832 13 13-5.832 13-13 13zm0-24c-6.065 0-11 4.935-11 11s4.935 11 11 11 11-4.935 11-11-4.935-11-11-11z"/></g><g><path d="m22.002 39c-2.206 0-4-1.794-4-4s1.794-4 4-4 4 1.794 4 4-1.794 4-4 4zm0-6c-1.103 0-2 .897-2 2s.897 2 2 2 2-.897 2-2-.898-2-2-2z"/></g><g><g><path d="m60.998 57h-38.996c-.553 0-1-.447-1-1s.447-1 1-1h38.996c.552 0 1-.448 1-1v-12.004c0-.552-.448-1-1-1-.553 0-1-.447-1-1s.447-1 1-1c1.654 0 3 1.346 3 3v12.004c0 1.654-1.346 3-3 3z"/></g><g><path d="m62.998 49h-24.5c-.553 0-1-.447-1-1s.447-1 1-1h24.5c.553 0 1 .447 1 1s-.447 1-1 1z"/></g><g><path d="m57.999 46c-.15 0-.303-.034-.446-.105-.494-.247-.694-.848-.447-1.342l1-2c.248-.494.847-.692 1.342-.447.494.247.694.848.447 1.342l-1 2c-.176.35-.529.552-.896.552z"/></g><g><path d="m59.001 54c-.367 0-.72-.202-.896-.553l-1-2c-.247-.494-.047-1.095.447-1.342.494-.246 1.094-.047 1.342.447l1 2c.247.494.047 1.095-.447 1.342-.143.072-.296.106-.446.106z"/></g><g><path d="m53.996 46c-.15 0-.303-.034-.446-.105-.494-.247-.694-.848-.447-1.342l1-2c.248-.494.847-.692 1.342-.447.494.247.694.848.447 1.342l-1 2c-.176.35-.529.552-.896.552z"/></g><g><path d="m54.998 54c-.367 0-.72-.202-.896-.553l-1-2c-.247-.494-.047-1.095.447-1.342.494-.246 1.094-.047 1.342.447l1 2c.247.494.047 1.095-.447 1.342-.143.072-.296.106-.446.106z"/></g><g><path d="m49.993 46c-.15 0-.303-.034-.446-.105-.494-.247-.694-.848-.447-1.342l1-2c.248-.494.848-.692 1.342-.447.494.247.694.848.447 1.342l-1 2c-.176.35-.529.552-.896.552z"/></g><g><path d="m50.995 54c-.367 0-.72-.202-.896-.553l-1-2c-.247-.494-.047-1.095.447-1.342.494-.246 1.094-.047 1.342.447l1 2c.247.494.047 1.095-.447 1.342-.143.072-.295.106-.446.106z"/></g><g><path d="m45.996 46c-.15 0-.303-.034-.446-.105-.494-.247-.694-.848-.447-1.342l1-2c.247-.494.849-.692 1.342-.447.494.247.694.848.447 1.342l-1 2c-.176.35-.529.552-.896.552z"/></g><g><path d="m46.998 54c-.367 0-.72-.202-.896-.553l-1-2c-.247-.494-.047-1.095.447-1.342.493-.246 1.094-.047 1.342.447l1 2c.247.494.047 1.095-.447 1.342-.143.072-.296.106-.446.106z"/></g><g><path d="m41.987 46c-.15 0-.303-.034-.446-.105-.494-.247-.694-.848-.447-1.342l1-2c.248-.494.848-.692 1.342-.447.494.247.694.848.447 1.342l-1 2c-.176.35-.529.552-.896.552z"/></g><g><path d="m42.989 54c-.367 0-.72-.202-.896-.553l-1-2c-.247-.494-.047-1.095.447-1.342.494-.246 1.094-.047 1.342.447l1 2c.247.494.047 1.095-.447 1.342-.143.072-.295.106-.446.106z"/></g><g><path d="m38.986 54c-.367 0-.72-.202-.896-.553l-1-2c-.247-.494-.047-1.095.447-1.342.494-.246 1.094-.047 1.342.447l1 2c.247.494.047 1.095-.447 1.342-.143.072-.295.106-.446.106z"/></g><g><path d="m34.983 54c-.367 0-.72-.202-.896-.553l-.54-1.079c-.247-.493-.047-1.095.447-1.342.493-.246 1.094-.047 1.342.447l.54 1.079c.247.493.047 1.095-.447 1.342-.143.072-.295.106-.446.106z"/></g></g><g><g><path d="m60.998 41.002h-18.596c-.553 0-1-.447-1-1s.447-1 1-1h18.596c.552 0 1-.448 1-1v-12.004c0-.552-.448-1-1-1-.553 0-1-.447-1-1s.447-1 1-1c1.654 0 3 1.346 3 3v12.004c0 1.654-1.346 3-3 3z"/></g><g><path d="m62.998 33.002h-19.14c-.553 0-1-.447-1-1s.447-1 1-1h19.14c.553 0 1 .447 1 1s-.447 1-1 1z"/></g><g><path d="m57.999 30.002c-.15 0-.303-.034-.446-.105-.494-.247-.694-.848-.447-1.342l1-2c.248-.494.847-.692 1.342-.447.494.247.694.848.447 1.342l-1 2c-.176.35-.529.552-.896.552z"/></g><g><path d="m59.001 38.002c-.367 0-.72-.202-.896-.553l-1-2c-.247-.494-.047-1.095.447-1.342.494-.246 1.094-.047 1.342.447l1 2c.247.494.047 1.095-.447 1.342-.143.072-.296.106-.446.106z"/></g><g><path d="m53.996 30.002c-.15 0-.303-.034-.446-.105-.494-.247-.694-.848-.447-1.342l1-2c.248-.494.847-.692 1.342-.447.494.247.694.848.447 1.342l-1 2c-.176.35-.529.552-.896.552z"/></g><g><path d="m54.998 38.002c-.367 0-.72-.202-.896-.553l-1-2c-.247-.494-.047-1.095.447-1.342.494-.246 1.094-.047 1.342.447l1 2c.247.494.047 1.095-.447 1.342-.143.072-.296.106-.446.106z"/></g><g><path d="m49.993 30.002c-.15 0-.303-.034-.446-.105-.494-.247-.694-.848-.447-1.342l1-2c.248-.494.848-.692 1.342-.447.494.247.694.848.447 1.342l-1 2c-.176.35-.529.552-.896.552z"/></g><g><path d="m50.995 38.002c-.367 0-.72-.202-.896-.553l-1-2c-.247-.494-.047-1.095.447-1.342.494-.246 1.094-.047 1.342.447l1 2c.247.494.047 1.095-.447 1.342-.143.072-.295.106-.446.106z"/></g><g><path d="m45.996 30.002c-.15 0-.303-.034-.446-.105-.494-.247-.694-.848-.447-1.342l1-2c.247-.494.849-.692 1.342-.447.494.247.694.848.447 1.342l-1 2c-.176.35-.529.552-.896.552z"/></g><g><path d="m46.998 38.002c-.367 0-.72-.202-.896-.553l-1-2c-.247-.494-.047-1.095.447-1.342.493-.246 1.094-.047 1.342.447l1 2c.247.494.047 1.095-.447 1.342-.143.072-.296.106-.446.106z"/></g><g><path d="m42.081 29.833c-.148 0-.3-.033-.442-.104-.495-.245-.698-.845-.453-1.34l.906-1.831c.245-.494.844-.697 1.34-.453.495.245.698.845.453 1.34l-.906 1.831c-.175.353-.53.557-.898.557z"/></g></g><g><path d="m60.998 25.004h-21.101c-.553 0-1-.447-1-1s.447-1 1-1h21.101c.552 0 1-.448 1-1v-12.004c0-.552-.448-1-1-1h-37.004c-.552 0-1 .448-1 1v4.001c0 .553-.447 1-1 1s-1-.447-1-1v-4.001c0-1.654 1.346-3 3-3h37.004c1.654 0 3 1.346 3 3v12.004c0 1.654-1.346 3-3 3z"/></g><g><path d="m62.998 17.004h-32.039c-.553 0-1-.447-1-1s.447-1 1-1h32.039c.553 0 1 .447 1 1s-.447 1-1 1z"/></g><g><path d="m57.999 14.004c-.15 0-.303-.034-.446-.105-.494-.247-.694-.848-.447-1.342l1-2c.248-.494.847-.691 1.342-.447.494.247.694.848.447 1.342l-1 2c-.176.35-.529.552-.896.552z"/></g><g><path d="m59.001 22.004c-.367 0-.72-.202-.896-.553l-1-2c-.247-.494-.047-1.095.447-1.342.494-.246 1.094-.047 1.342.447l1 2c.247.494.047 1.095-.447 1.342-.143.072-.296.106-.446.106z"/></g><g><path d="m53.996 14.004c-.15 0-.303-.034-.446-.105-.494-.247-.694-.848-.447-1.342l1-2c.248-.494.847-.691 1.342-.447.494.247.694.848.447 1.342l-1 2c-.176.35-.529.552-.896.552z"/></g><g><path d="m54.998 22.004c-.367 0-.72-.202-.896-.553l-1-2c-.247-.494-.047-1.095.447-1.342.494-.246 1.094-.047 1.342.447l1 2c.247.494.047 1.095-.447 1.342-.143.072-.296.106-.446.106z"/></g><g><path d="m49.993 14.004c-.15 0-.303-.034-.446-.105-.494-.247-.694-.848-.447-1.342l1-2c.248-.494.848-.691 1.342-.447.494.247.694.848.447 1.342l-1 2c-.176.35-.529.552-.896.552z"/></g><g><path d="m50.995 22.004c-.367 0-.72-.202-.896-.553l-1-2c-.247-.494-.047-1.095.447-1.342.494-.246 1.094-.047 1.342.447l1 2c.247.494.047 1.095-.447 1.342-.143.072-.295.106-.446.106z"/></g><g><path d="m45.996 14.004c-.15 0-.303-.034-.446-.105-.494-.247-.694-.848-.447-1.342l1-2c.247-.494.849-.691 1.342-.447.494.247.694.848.447 1.342l-1 2c-.176.35-.529.552-.896.552z"/></g><g><path d="m46.998 22.004c-.367 0-.72-.202-.896-.553l-1-2c-.247-.494-.047-1.095.447-1.342.493-.246 1.094-.047 1.342.447l1 2c.247.494.047 1.095-.447 1.342-.143.072-.296.106-.446.106z"/></g><g><path d="m41.987 14.004c-.15 0-.303-.034-.446-.105-.494-.247-.694-.848-.447-1.342l1-2c.248-.494.848-.691 1.342-.447.494.247.694.848.447 1.342l-1 2c-.176.35-.529.552-.896.552z"/></g><g><path d="m42.989 22.004c-.367 0-.72-.202-.896-.553l-1-2c-.247-.494-.047-1.095.447-1.342.494-.246 1.094-.047 1.342.447l1 2c.247.494.047 1.095-.447 1.342-.143.072-.295.106-.446.106z"/></g><g><path d="m37.984 14.004c-.15 0-.303-.034-.446-.105-.494-.247-.694-.848-.447-1.342l1-2c.247-.494.848-.691 1.342-.447.494.247.694.848.447 1.342l-1 2c-.176.35-.528.552-.896.552z"/></g><g><path d="m39 22c-.365 0-.716-.2-.893-.547l-1.014-1.996c-.25-.493-.054-1.095.438-1.345.493-.25 1.094-.053 1.345.438l1.014 1.996c.25.493.054 1.095-.438 1.345-.145.074-.3.109-.452.109z"/></g><g><path d="m33.981 14.004c-.15 0-.303-.034-.446-.105-.494-.247-.694-.848-.447-1.342l1-2c.247-.494.848-.691 1.342-.447.494.247.694.848.447 1.342l-1 2c-.176.35-.528.552-.896.552z"/></g><g><path d="m29.979 14.004c-.15 0-.303-.034-.446-.105-.494-.247-.694-.848-.447-1.342l1-2c.247-.494.848-.691 1.342-.447.494.247.694.848.447 1.342l-1 2c-.177.35-.529.552-.896.552z"/></g><g><path d="m25.976 14.004c-.15 0-.303-.034-.446-.105-.494-.247-.694-.848-.447-1.342l1-2c.247-.494.848-.691 1.342-.447.494.247.694.848.447 1.342l-1 2c-.177.35-.529.552-.896.552z"/></g><g><path d="m22.002 33c-.553 0-1-.447-1-1v-9c0-.553.447-1 1-1s1 .447 1 1v9c0 .553-.447 1-1 1z"/></g><g><path d="m22.002 48c-.553 0-1-.447-1-1v-9c0-.553.447-1 1-1s1 .447 1 1v9c0 .553-.447 1-1 1z"/></g><g><path d="m19.881 33.879c-.256 0-.512-.098-.707-.293l-6.365-6.363c-.391-.391-.391-1.023 0-1.414s1.023-.391 1.414 0l6.365 6.363c.391.391.391 1.023 0 1.414-.195.195-.451.293-.707.293z"/></g><g><path d="m30.486 44.486c-.256 0-.512-.098-.707-.293l-6.363-6.365c-.391-.391-.391-1.023 0-1.414s1.023-.391 1.414 0l6.363 6.365c.391.391.391 1.023 0 1.414-.195.196-.451.293-.707.293z"/></g><g><path d="m10.002 36.002c-.552 0-1-.447-1-1 0-.552.447-1 1-1l9-.002c.552 0 1 .447 1 1 0 .552-.447 1-1 1z"/></g><g><path d="m34.002 36.002-9-.002c-.553 0-1-.448-1-1 0-.553.448-1 1-1l9 .002c.553 0 1 .448 1 1 0 .553-.448 1-1 1z"/></g><g><path d="m13.518 44.487c-.256 0-.512-.098-.707-.293-.391-.391-.391-1.023 0-1.414l6.363-6.366c.391-.391 1.023-.391 1.414 0s.391 1.023 0 1.414l-6.363 6.366c-.196.196-.452.293-.707.293z"/></g><g><path d="m24.123 33.879c-.256 0-.512-.098-.707-.293-.391-.391-.391-1.023 0-1.414l6.365-6.362c.391-.391 1.023-.391 1.414 0s.391 1.023 0 1.414l-6.365 6.362c-.195.195-.451.293-.707.293z"/></g></g></svg>